{
  "accessors": [
    {
      "bufferView": 2,
      "componentType": 5126,
      "count": 8690,
      "max": [
        0.6542026996612549,
        0.7798309326171875,
        2.100977659225464
      ],
      "min": [
        -0.6542026996612549,
        -0.5573342442512512,
        -0.00046419736463576555
      ],
      "type": "VEC3"
    },
    {
      "bufferView": 2,
      "byteOffset": 104280,
      "componentType": 5126,
      "count": 8690,
      "max": [
        1.0,
        1.0,
        1.0
      ],
      "min": [
        -1.0,
        -1.0,
        -1.0
      ],
      "type": "VEC3"
    },
    {
      "bufferView": 1,
      "componentType": 5126,
      "count": 8690,
      "max": [
        0.9968652725219727,
        0.9964465498924255
      ],
      "min": [
        0.007586836814880371,
        0.0043164645321667194
      ],
      "type": "VEC2"
    },
    {
      "bufferView": 0,
      "componentType": 5125,
      "count": 40656,
      "type": "SCALAR"
    }
  ],
  "asset": {
    "extras": {
      "author": "Kasder (https://sketchfab.com/Kasder)",
      "license": "CC-BY-4.0 (http://creativecommons.org/licenses/by/4.0/)",
      "source": "https://sketchfab.com/3d-models/padoru-santa-saber-alter-7d725ba492c0496c90368743fecf1ed5",
      "title": "Padoru Santa Saber Alter"
    },
    "generator": "Sketchfab-12.66.0",
    "version": "2.0"
  },
  "bufferViews": [
    {
      "buffer": 0,
      "byteLength": 162624,
      "byteOffset": 0,
      "name": "floatBufferViews",
      "target": 34963
    },
    {
      "buffer": 0,
      "byteLength": 69520,
      "byteOffset": 162624,
      "byteStride": 8,
      "name": "floatBufferViews",
      "target": 34962
    },
    {
      "buffer": 0,
      "byteLength": 208560,
      "byteOffset": 232144,
      "byteStride": 12,
      "name": "floatBufferViews",
      "target": 34962
    }
  ],
  "buffers": [
    {
      "byteLength": 440704,
      "uri": "scene.bin"
    }
  ],
  "images": [
    {
      "uri": "textures/atlas.001_baseColor.png"
    }
  ],
  "materials": [
    {
      "doubleSided": true,
      "name": "atlas.001",
      "pbrMetallicRoughness": {
        "baseColorTexture": {
          "index": 0
        },
        "metallicFactor": 0.0,
        "roughnessFactor": 0.8239417257461427
      }
    }
  ],
  "meshes": [
    {
      "name": "0",
      "primitives": [
        {
          "attributes": {
            "NORMAL": 1,
            "POSITION": 0,
            "TEXCOORD_0": 2
          },
          "indices": 3,
          "material": 0,
          "mode": 4
        }
      ]
    }
  ],
  "nodes": [
    {
      "children": [
        1
      ],
      "matrix": [
        1.0,
        0.0,
        0.0,
        0.0,
        0.0,
        2.220446049250313e-16,
        -1.0,
        0.0,
        0.0,
        1.0,
        2.220446049250313e-16,
        0.0,
        0.0,
        0.0,
        0.0,
        1.0
      ],
      "name": "Sketchfab_model"
    },
    {
      "children": [
        2
      ],
      "matrix": [
        1.0,
        0.0,
        0.0,
        0.0,
        0.0,
        0.0,
        1.0,
        0.0,
        0.0,
        -1.0,
        0.0,
        0.0,
        0.0,
        0.0,
        0.0,
        1.0
      ],
      "name": "Alter.fbx"
    },
    {
      "children": [
        3
      ],
      "name": "RootNode"
    },
    {
      "children": [
        4
      ],
      "matrix": [
        99.99998474121016,
        -1.0543623386477713e-05,
        6.87909713031225e-06,
        0.0,
        6.879095412537834e-06,
        -1.6292066185957945e-05,
        -99.99998474120937,
        0.0,
        1.0543624507224777e-05,
        99.99998474120906,
        -1.6292065475415318e-05,
        0.0,
        -1.0907300747931004e-05,
        -1.3405457139015198e-05,
        -1.6391301187468343e-06,
        1.0
      ],
      "name": "Body"
    },
    {
      "mesh": 0,
      "name": "0"
    }
  ],
  "samplers": [
    {
      "magFilter": 9729,
      "minFilter": 9987,
      "wrapS": 10497,
      "wrapT": 10497
    }
  ],
  "scene": 0,
  "scenes": [
    {
      "name": "Sketchfab_Scene",
      "nodes": [
        0
      ]
    }
  ],
  "textures": [
    {
      "sampler": 0,
      "source": 0
    }
  ]
}
