{
    "asset" : {
        "generator" : "Khronos glTF Blender I/O v3.4.50",
        "version" : "2.0"
    },
    "scene" : 0,
    "scenes" : [
        {
            "name" : "Scene",
            "nodes" : [
                4,
                9,
                14,
                19,
                24,
                29
            ]
        }
    ],
    "nodes" : [
        {
            "mesh" : 0,
            "name" : "padoru_LOD0"
        },
        {
            "children" : [
                0
            ],
            "name" : "Body",
            "rotation" : [
                -0.70710688829422,
                0,
                0,
                0.7071066498756409
            ],
            "scale" : [
                99.99998474121094,
                99.9999771118164,
                99.9999771118164
            ],
            "translation" : [
                -1.0907300747931004e-05,
                -1.3405457139015198e-05,
                0
            ]
        },
        {
            "children" : [
                1
            ],
            "name" : "RootNode"
        },
        {
            "children" : [
                2
            ],
            "name" : "Alter.fbx",
            "rotation" : [
                0.70710688829422,
                0,
                0,
                0.7071066498756409
            ]
        },
        {
            "children" : [
                3
            ],
            "name" : "Sketchfab_model",
            "rotation" : [
                -0.70710688829422,
                0,
                0,
                0.7071066498756409
            ]
        },
        {
            "mesh" : 1,
            "name" : "padoru_LOD1"
        },
        {
            "children" : [
                5
            ],
            "name" : "Body.001",
            "rotation" : [
                -0.70710688829422,
                0,
                0,
                0.7071066498756409
            ],
            "scale" : [
                99.99998474121094,
                99.9999771118164,
                99.9999771118164
            ],
            "translation" : [
                -1.0907300747931004e-05,
                -1.3405457139015198e-05,
                0
            ]
        },
        {
            "children" : [
                6
            ],
            "name" : "RootNode.001"
        },
        {
            "children" : [
                7
            ],
            "name" : "Alter.fbx.001",
            "rotation" : [
                0.70710688829422,
                0,
                0,
                0.7071066498756409
            ]
        },
        {
            "children" : [
                8
            ],
            "name" : "Sketchfab_model.001",
            "rotation" : [
                -0.70710688829422,
                0,
                0,
                0.7071066498756409
            ]
        },
        {
            "mesh" : 2,
            "name" : "padoru_LOD2"
        },
        {
            "children" : [
                10
            ],
            "name" : "Body.002",
            "rotation" : [
                -0.70710688829422,
                0,
                0,
                0.7071066498756409
            ],
            "scale" : [
                99.99998474121094,
                99.9999771118164,
                99.9999771118164
            ],
            "translation" : [
                -1.0907300747931004e-05,
                -1.3405457139015198e-05,
                0
            ]
        },
        {
            "children" : [
                11
            ],
            "name" : "RootNode.002"
        },
        {
            "children" : [
                12
            ],
            "name" : "Alter.fbx.002",
            "rotation" : [
                0.70710688829422,
                0,
                0,
                0.7071066498756409
            ]
        },
        {
            "children" : [
                13
            ],
            "name" : "Sketchfab_model.002",
            "rotation" : [
                -0.70710688829422,
                0,
                0,
                0.7071066498756409
            ]
        },
        {
            "mesh" : 3,
            "name" : "padoru_LOD3"
        },
        {
            "children" : [
                15
            ],
            "name" : "Body.003",
            "rotation" : [
                -0.70710688829422,
                0,
                0,
                0.7071066498756409
            ],
            "scale" : [
                99.99998474121094,
                99.9999771118164,
                99.9999771118164
            ],
            "translation" : [
                -1.0907300747931004e-05,
                -1.3405457139015198e-05,
                0
            ]
        },
        {
            "children" : [
                16
            ],
            "name" : "RootNode.003"
        },
        {
            "children" : [
                17
            ],
            "name" : "Alter.fbx.003",
            "rotation" : [
                0.70710688829422,
                0,
                0,
                0.7071066498756409
            ]
        },
        {
            "children" : [
                18
            ],
            "name" : "Sketchfab_model.003",
            "rotation" : [
                -0.70710688829422,
                0,
                0,
                0.7071066498756409
            ]
        },
        {
            "mesh" : 4,
            "name" : "padoru_LOD4"
        },
        {
            "children" : [
                20
            ],
            "name" : "Body.004",
            "rotation" : [
                -0.70710688829422,
                0,
                0,
                0.7071066498756409
            ],
            "scale" : [
                99.99998474121094,
                99.9999771118164,
                99.9999771118164
            ],
            "translation" : [
                -1.0907300747931004e-05,
                -1.3405457139015198e-05,
                0
            ]
        },
        {
            "children" : [
                21
            ],
            "name" : "RootNode.004"
        },
        {
            "children" : [
                22
            ],
            "name" : "Alter.fbx.004",
            "rotation" : [
                0.70710688829422,
                0,
                0,
                0.7071066498756409
            ]
        },
        {
            "children" : [
                23
            ],
            "name" : "Sketchfab_model.004",
            "rotation" : [
                -0.70710688829422,
                0,
                0,
                0.7071066498756409
            ]
        },
        {
            "mesh" : 5,
            "name" : "padoru_LOD5"
        },
        {
            "children" : [
                25
            ],
            "name" : "Body.005",
            "rotation" : [
                -0.70710688829422,
                0,
                0,
                0.7071066498756409
            ],
            "scale" : [
                99.99998474121094,
                99.9999771118164,
                99.9999771118164
            ],
            "translation" : [
                -1.0907300747931004e-05,
                -1.3405457139015198e-05,
                0
            ]
        },
        {
            "children" : [
                26
            ],
            "name" : "RootNode.005"
        },
        {
            "children" : [
                27
            ],
            "name" : "Alter.fbx.005",
            "rotation" : [
                0.70710688829422,
                0,
                0,
                0.7071066498756409
            ]
        },
        {
            "children" : [
                28
            ],
            "name" : "Sketchfab_model.005",
            "rotation" : [
                -0.70710688829422,
                0,
                0,
                0.7071066498756409
            ]
        }
    ],
    "materials" : [
        {
            "doubleSided" : true,
            "name" : "atlas",
            "pbrMetallicRoughness" : {
                "baseColorTexture" : {
                    "index" : 0
                },
                "metallicFactor" : 0,
                "roughnessFactor" : 0.823941707611084
            }
        },
        {
            "doubleSided" : true,
            "name" : "atlas.001",
            "pbrMetallicRoughness" : {
                "baseColorTexture" : {
                    "index" : 1
                },
                "metallicFactor" : 0,
                "roughnessFactor" : 0.823941707611084
            }
        },
        {
            "doubleSided" : true,
            "name" : "atlas.002",
            "pbrMetallicRoughness" : {
                "baseColorTexture" : {
                    "index" : 2
                },
                "metallicFactor" : 0,
                "roughnessFactor" : 0.823941707611084
            }
        },
        {
            "doubleSided" : true,
            "name" : "atlas.003",
            "pbrMetallicRoughness" : {
                "baseColorTexture" : {
                    "index" : 3
                },
                "metallicFactor" : 0,
                "roughnessFactor" : 0.823941707611084
            }
        },
        {
            "doubleSided" : true,
            "name" : "atlas.004",
            "pbrMetallicRoughness" : {
                "baseColorTexture" : {
                    "index" : 4
                },
                "metallicFactor" : 0,
                "roughnessFactor" : 0.823941707611084
            }
        },
        {
            "doubleSided" : true,
            "name" : "atlas.005",
            "pbrMetallicRoughness" : {
                "baseColorTexture" : {
                    "index" : 5
                },
                "metallicFactor" : 0,
                "roughnessFactor" : 0.823941707611084
            }
        }
    ],
    "meshes" : [
        {
            "name" : "0",
            "primitives" : [
                {
                    "attributes" : {
                        "POSITION" : 0,
                        "TEXCOORD_0" : 1,
                        "NORMAL" : 2
                    },
                    "indices" : 3,
                    "material" : 0
                }
            ]
        },
        {
            "name" : "0.001",
            "primitives" : [
                {
                    "attributes" : {
                        "POSITION" : 4,
                        "TEXCOORD_0" : 5,
                        "NORMAL" : 6
                    },
                    "indices" : 7,
                    "material" : 1
                }
            ]
        },
        {
            "name" : "0.002",
            "primitives" : [
                {
                    "attributes" : {
                        "POSITION" : 8,
                        "TEXCOORD_0" : 9,
                        "NORMAL" : 10
                    },
                    "indices" : 11,
                    "material" : 2
                }
            ]
        },
        {
            "name" : "0.003",
            "primitives" : [
                {
                    "attributes" : {
                        "POSITION" : 12,
                        "TEXCOORD_0" : 13,
                        "NORMAL" : 14
                    },
                    "indices" : 15,
                    "material" : 3
                }
            ]
        },
        {
            "name" : "0.004",
            "primitives" : [
                {
                    "attributes" : {
                        "POSITION" : 16,
                        "TEXCOORD_0" : 17,
                        "NORMAL" : 18
                    },
                    "indices" : 19,
                    "material" : 4
                }
            ]
        },
        {
            "name" : "0.005",
            "primitives" : [
                {
                    "attributes" : {
                        "POSITION" : 20,
                        "TEXCOORD_0" : 21,
                        "NORMAL" : 22
                    },
                    "indices" : 23,
                    "material" : 5
                }
            ]
        }
    ],
    "textures" : [
        {
            "sampler" : 0,
            "source" : 0
        },
        {
            "sampler" : 0,
            "source" : 0
        },
        {
            "sampler" : 0,
            "source" : 0
        },
        {
            "sampler" : 0,
            "source" : 0
        },
        {
            "sampler" : 0,
            "source" : 0
        },
        {
            "sampler" : 0,
            "source" : 0
        }
    ],
    "images" : [
        {
            "mimeType" : "image/png",
            "name" : "atlas.001_baseColor",
            "uri" : "textures/atlas_001_baseColor.png"
        }
    ],
    "accessors" : [
        {
            "bufferView" : 0,
            "componentType" : 5126,
            "count" : 8781,
            "max" : [
                0.6542026996612549,
                0.7798309326171875,
                2.100977659225464
            ],
            "min" : [
                -0.6542026996612549,
                -0.5573342442512512,
                -0.00046419736463576555
            ],
            "type" : "VEC3"
        },
        {
            "bufferView" : 1,
            "componentType" : 5126,
            "count" : 8781,
            "type" : "VEC2"
        },
        {
            "bufferView" : 2,
            "componentType" : 5126,
            "count" : 8781,
            "type" : "VEC3"
        },
        {
            "bufferView" : 3,
            "componentType" : 5123,
            "count" : 40656,
            "type" : "SCALAR"
        },
        {
            "bufferView" : 4,
            "componentType" : 5126,
            "count" : 5101,
            "max" : [
                0.65544193983078,
                0.7793928980827332,
                2.100977659225464
            ],
            "min" : [
                -0.65544193983078,
                -0.5573342442512512,
                -0.0004966094275005162
            ],
            "type" : "VEC3"
        },
        {
            "bufferView" : 5,
            "componentType" : 5126,
            "count" : 5101,
            "type" : "VEC2"
        },
        {
            "bufferView" : 6,
            "componentType" : 5126,
            "count" : 5101,
            "type" : "VEC3"
        },
        {
            "bufferView" : 7,
            "componentType" : 5123,
            "count" : 20328,
            "type" : "SCALAR"
        },
        {
            "bufferView" : 8,
            "componentType" : 5126,
            "count" : 2943,
            "max" : [
                0.6487165689468384,
                0.7832524180412292,
                2.1014652252197266
            ],
            "min" : [
                -0.6487166285514832,
                -0.556498646736145,
                -0.0005192507524043322
            ],
            "type" : "VEC3"
        },
        {
            "bufferView" : 9,
            "componentType" : 5126,
            "count" : 2943,
            "type" : "VEC2"
        },
        {
            "bufferView" : 10,
            "componentType" : 5126,
            "count" : 2943,
            "type" : "VEC3"
        },
        {
            "bufferView" : 11,
            "componentType" : 5123,
            "count" : 10164,
            "type" : "SCALAR"
        },
        {
            "bufferView" : 12,
            "componentType" : 5126,
            "count" : 1663,
            "max" : [
                0.6487165689468384,
                0.7829949855804443,
                2.0962095260620117
            ],
            "min" : [
                -0.6487166285514832,
                -0.559440553188324,
                -0.0004453255969565362
            ],
            "type" : "VEC3"
        },
        {
            "bufferView" : 13,
            "componentType" : 5126,
            "count" : 1663,
            "type" : "VEC2"
        },
        {
            "bufferView" : 14,
            "componentType" : 5126,
            "count" : 1663,
            "type" : "VEC3"
        },
        {
            "bufferView" : 15,
            "componentType" : 5123,
            "count" : 5082,
            "type" : "SCALAR"
        },
        {
            "bufferView" : 16,
            "componentType" : 5126,
            "count" : 978,
            "max" : [
                0.6444424986839294,
                0.7880154252052307,
                2.0962095260620117
            ],
            "min" : [
                -0.6518222689628601,
                -0.554600179195404,
                -0.0010629895841702819
            ],
            "type" : "VEC3"
        },
        {
            "bufferView" : 17,
            "componentType" : 5126,
            "count" : 978,
            "type" : "VEC2"
        },
        {
            "bufferView" : 18,
            "componentType" : 5126,
            "count" : 978,
            "type" : "VEC3"
        },
        {
            "bufferView" : 19,
            "componentType" : 5123,
            "count" : 2541,
            "type" : "SCALAR"
        },
        {
            "bufferView" : 20,
            "componentType" : 5126,
            "count" : 586,
            "max" : [
                0.6353190541267395,
                0.7890867590904236,
                2.125856637954712
            ],
            "min" : [
                -0.661593496799469,
                -0.5487698316574097,
                -0.0010629895841702819
            ],
            "type" : "VEC3"
        },
        {
            "bufferView" : 21,
            "componentType" : 5126,
            "count" : 586,
            "type" : "VEC2"
        },
        {
            "bufferView" : 22,
            "componentType" : 5126,
            "count" : 586,
            "type" : "VEC3"
        },
        {
            "bufferView" : 23,
            "componentType" : 5123,
            "count" : 1269,
            "type" : "SCALAR"
        }
    ],
    "bufferViews" : [
        {
            "buffer" : 0,
            "byteLength" : 105372,
            "byteOffset" : 0,
            "target" : 34962
        },
        {
            "buffer" : 0,
            "byteLength" : 70248,
            "byteOffset" : 105372,
            "target" : 34962
        },
        {
            "buffer" : 0,
            "byteLength" : 105372,
            "byteOffset" : 175620,
            "target" : 34962
        },
        {
            "buffer" : 0,
            "byteLength" : 81312,
            "byteOffset" : 280992,
            "target" : 34963
        },
        {
            "buffer" : 0,
            "byteLength" : 61212,
            "byteOffset" : 362304,
            "target" : 34962
        },
        {
            "buffer" : 0,
            "byteLength" : 40808,
            "byteOffset" : 423516,
            "target" : 34962
        },
        {
            "buffer" : 0,
            "byteLength" : 61212,
            "byteOffset" : 464324,
            "target" : 34962
        },
        {
            "buffer" : 0,
            "byteLength" : 40656,
            "byteOffset" : 525536,
            "target" : 34963
        },
        {
            "buffer" : 0,
            "byteLength" : 35316,
            "byteOffset" : 566192,
            "target" : 34962
        },
        {
            "buffer" : 0,
            "byteLength" : 23544,
            "byteOffset" : 601508,
            "target" : 34962
        },
        {
            "buffer" : 0,
            "byteLength" : 35316,
            "byteOffset" : 625052,
            "target" : 34962
        },
        {
            "buffer" : 0,
            "byteLength" : 20328,
            "byteOffset" : 660368,
            "target" : 34963
        },
        {
            "buffer" : 0,
            "byteLength" : 19956,
            "byteOffset" : 680696,
            "target" : 34962
        },
        {
            "buffer" : 0,
            "byteLength" : 13304,
            "byteOffset" : 700652,
            "target" : 34962
        },
        {
            "buffer" : 0,
            "byteLength" : 19956,
            "byteOffset" : 713956,
            "target" : 34962
        },
        {
            "buffer" : 0,
            "byteLength" : 10164,
            "byteOffset" : 733912,
            "target" : 34963
        },
        {
            "buffer" : 0,
            "byteLength" : 11736,
            "byteOffset" : 744076,
            "target" : 34962
        },
        {
            "buffer" : 0,
            "byteLength" : 7824,
            "byteOffset" : 755812,
            "target" : 34962
        },
        {
            "buffer" : 0,
            "byteLength" : 11736,
            "byteOffset" : 763636,
            "target" : 34962
        },
        {
            "buffer" : 0,
            "byteLength" : 5082,
            "byteOffset" : 775372,
            "target" : 34963
        },
        {
            "buffer" : 0,
            "byteLength" : 7032,
            "byteOffset" : 780456,
            "target" : 34962
        },
        {
            "buffer" : 0,
            "byteLength" : 4688,
            "byteOffset" : 787488,
            "target" : 34962
        },
        {
            "buffer" : 0,
            "byteLength" : 7032,
            "byteOffset" : 792176,
            "target" : 34962
        },
        {
            "buffer" : 0,
            "byteLength" : 2538,
            "byteOffset" : 799208,
            "target" : 34963
        }
    ],
    "samplers" : [
        {
            "magFilter" : 9729,
            "minFilter" : 9987
        }
    ],
    "buffers" : [
        {
            "byteLength" : 801748,
            "uri" : "Padoru_LOD.bin"
        }
    ]
}
